<svg viewBox="0 0 800 800" xmlns="http://www.w3.org/2000/svg"><path d="M203.14571506710223,431.3347319213367 L208.0781560650433,377.9011085530616 M208.0781560650433,377.9011085530616 L222.63566313309875,321.44686252059415 M222.63566313309875,321.44686252059415 L246.0883503753089,264.8036990510715 M246.0883503753089,264.8036990510715 L277.2599558873956,210.8128855160242 M277.2599558873956,210.8128855160242 L314.5868609102637,162.18273422275627 M314.5868609102637,162.18273422275627 L356.1966183829201,121.35238369375747 M356.1966183829201,121.35238369375747 L400.0019773700699,90.36970189250843 M400.0019773700699,90.36970189250843 L400.0019773700699,90.36970189250843 M203.14571506710223,431.3347319213367 L255.97427131186078,455.2298991003287 M255.97427131186078,455.2298991003287 L317.1756703614594,471.1320754824635 M317.1756703614594,471.1320754824635 L383.1922176291219,478.116495221794 M383.1922176291219,478.116495221794 L450.1860482709285,475.77697720165213 M450.1860482709285,475.77697720165213 L514.2623454032009,464.2495737474237 M514.2623454032009,464.2495737474237 L571.6961488481832,444.20466308891775 M571.6961488481832,444.20466308891775 L619.1489960138945,416.8078668844445 M619.1489960138945,416.8078668844445 L653.8630918728525,383.6521671578213 M653.8630918728525,383.6521671578213 L673.8216070290009,346.66513586325084 M673.8216070290009,346.66513586325084 L677.8657178787676,307.9967497386649 M677.8657178787676,307.9967497386649 L665.7617374553201,269.89439462235714 M665.7617374553201,269.89439462235714 L638.2143551993643,234.57214726322147 M638.2143551993643,234.57214726322147 L596.825430245354,204.08222902807546 M596.825430245354,204.08222902807546 L544.0006321250728,180.19586338679795 M544.0006321250728,180.19586338679795 L482.8096465010421,164.30047221859274 M482.8096465010421,164.30047221859274 L416.8077823708237,157.31926695532002 M416.8077823708237,157.31926695532002 L349.8295408552111,159.65769231707682 M349.8295408552111,159.65769231707682 L285.76616754598814,171.17994629102455 M285.76616754598814,171.17994629102455 L228.3396619352211,191.21683033438697 M228.3396619352211,191.21683033438697 L180.8868147694039,218.60456158871787 M180.8868147694039,218.60456158871787 L146.16542107611033,251.75223470191838 M146.16542107611033,251.75223470191838 L126.19398209698761,288.7341165184993 M126.19398209698761,288.7341165184993 L122.13428212123245,327.4014099836527 M122.13428212123245,327.4014099836527 L134.22357940739448,365.5069795748747 M134.22357940739448,365.5069795748747 L161.76054823775678,400.83601214600907 M161.76054823775678,400.83601214600907 L203.14571506710223,431.3347319213367 M203.16242493878997,662.8445635824361 L203.14571506710223,431.3347319213367 M203.16242493878997,662.8445635824361 L255.98649711881464,686.741759215719 M255.98649711881464,686.741759215719 L317.18270116321634,702.6452854899126 M317.18270116321634,702.6452854899126 L383.19364455129084,709.6302981074916 M383.19364455129084,709.6302981074916 L450.18178832661346,707.2905814961034 M450.18178832661346,707.2905814961034 L514.2526463357087,695.7621995220765 M514.2526463357087,695.7621995220765 L571.681574688241,675.7155872838338 M571.681574688241,675.7155872838338 L619.1303942203388,648.3164653291426 M619.1303942203388,648.3164653291426 L653.8415439765909,615.1579508463802 M653.8415439765909,615.1579508463802 L673.7983656714487,578.1677793729062 M673.7983656714487,578.1677793729062 L677.842133932601,539.4961101411666 M677.842133932601,539.4961101411666 L665.7391814762009,501.3905197939806 M665.7391814762009,501.3905197939806 L638.1941377886412,466.06527309852106 M638.1941377886412,466.06527309852106 L596.8087259429317,435.5727657321929 M596.8087259429317,435.5727657321929 L543.9884112494583,411.6843716368147 M543.9884112494583,411.6843716368147 L482.80261886298825,395.78763057669744 M482.80261886298825,395.78763057669744 L416.80635611995564,388.80583243524586 M416.80635611995564,388.80583243524586 L349.833798824637,391.14445638822525 M349.833798824637,391.14445638822525 L285.77586244482535,402.6676888818602 M285.77586244482535,402.6676888818602 L228.35423068773105,422.70627450478594 M228.35423068773105,422.70627450478594 L180.90541115552742,450.0963315091386 M180.90541115552742,450.0963315091386 L146.18696480371707,483.24681937830496 M146.18696480371707,483.24681937830496 L126.21722147965073,520.231841373678 M126.21722147965073,520.231841373678 L122.15786673869997,558.9024179459616 M122.15786673869997,558.9024179459616 L134.24613855021664,597.0112227681312 M134.24613855021664,597.0112227681312 L161.78077057981906,632.3432546757363 M161.78077057981906,632.3432546757363 L203.16242493878997,662.8445635824361 M580.4094162869042,445.04091157662594 L531.9906561685161,423.14287940372765 M531.9906561685161,423.14287940372765 L475.9032822080636,408.5706137067988 M475.9032822080636,408.5706137067988 L415.40613309003487,402.17051009500136 M415.40613309003487,402.17051009500136 L354.014049860454,404.3142923191058 M354.014049860454,404.3142923191058 L295.29376120410745,414.87743813674206 M295.29376120410745,414.87743813674206 L242.65698285039142,433.2464488604146 M242.65698285039142,433.2464488604146 L199.16223156570757,458.3543472621825 M199.16223156570757,458.3543472621825 L167.33726637951537,488.74260325084697 M167.33726637951537,488.74260325084697 L149.0321859101003,522.6457484050792 M149.0321859101003,522.6457484050792 L145.3117027757706,558.0938054912822 M145.3117027757706,558.0938054912822 L156.39317806300284,593.0267620733028 M156.39317806300284,593.0267620733028 L181.63364474437472,625.4141987946971 M181.63364474437472,625.4141987946971 L219.5669741000142,653.37339270827 M219.5669741000142,653.37339270827 L267.98889154960284,675.2788206184151 M267.98889154960284,675.2788206184151 L324.08501419552005,689.8567877775095 M324.08501419552005,689.8567877775095 L384.5944991359763,696.2595924417432 M384.5944991359763,696.2595924417432 L445.99967933283205,694.1148920802964 M445.99967933283205,694.1148920802964 L504.7308257528166,683.5474192744449 M504.7308257528166,683.5474192744449 L557.3737352743726,665.1716639636912 M557.3737352743726,665.1716639636912 L600.8684865589819,640.0561484851708 M600.8684865589819,640.0561484851708 L632.687320577249,609.6611479105419 M632.687320577249,609.6611479105419 L650.981543283079,575.7536757630133 M650.981543283079,575.7536757630133 L654.6889294502791,540.3047005398288 M654.6889294502791,540.3047005398288 L643.5951183407312,505.3744450102282 M643.5951183407312,505.3744450102282 L618.3459029738767,472.9927097520987 M618.3459029738767,472.9927097520987 L580.4094162869042,445.04091157662594 M580.4094162869042,445.04091157662594 L580.419438713599,293.52375076486413 M580.419438713599,293.52375076486413 L531.9979886023661,271.62693555747217 M531.9979886023661,271.62693555747217 L475.90749874658513,257.0554797241282 M475.90749874658513,257.0554797241282 L415.40698883172763,250.65573180791364 M415.40698883172763,250.65573180791364 L354.0114951051314,252.7993948876583 M354.0114951051314,252.7993948876583 L295.2879443308635,263.36195364588707 M295.2879443308635,263.36195364588707 L242.6482417195308,281.72994351156694 M242.6482417195308,281.72994351156694 L199.15107392555248,306.8364465860509 M199.15107392555248,306.8364465860509 L167.32434041722723,337.22301386955485 M167.32434041722723,337.22301386955485 L149.01824264079912,371.12427508159374 M149.01824264079912,371.12427508159374 L145.2975524376427,406.57036247753615 M145.2975524376427,406.57036247753615 L156.37964305386825,441.5013780912976 M156.37964305386825,441.5013780912976 L181.62151181820215,473.8870153691356 M181.62151181820215,473.8870153691356 L219.55694861035812,501.84465594073083 M219.55694861035812,501.84465594073083 L267.9815564036355,523.7488668853013 M267.9815564036355,523.7488668853013 L324.08079591703824,538.3260241807578 M324.08079591703824,538.3260241807578 L384.5936430250845,544.7284731493836 M384.5936430250845,544.7284731493836 L446.00223517429544,542.5838919323052 M446.00223517429544,542.5838919323052 L504.7366449187202,532.0170061859011 M504.7366449187202,532.0170061859011 L557.3824793791905,513.6422717332028 M557.3824793791905,513.6422717332028 L600.8796471730941,488.5281515820367 M600.8796471730941,488.5281515820367 L632.7002488321968,458.13483971263076 M632.7002488321968,458.13483971263076 L650.9954876385211,424.2292515073358 M650.9954876385211,424.2292515073358 L654.703079419208,388.7822459744203 M654.703079419208,388.7822459744203 L643.6086516099056,353.8539314130537 M643.6086516099056,353.8539314130537 L618.358033187932,321.4739955984277 M618.358033187932,321.4739955984277 L580.419438713599,293.52375076486413" stroke="black"  stroke-width="4"  fill="red"/></svg>